HIERARCHY
ROOT Hips
{
  OFFSET -35.4901 99.2528 17.4586
  CHANNELS 6 Xposition Yposition Zposition Zrotation Xrotation Yrotation
  JOINT LeftUpLeg
  {
    OFFSET 8.64259 1.95398 -2.38835
    CHANNELS 3 Zrotation Xrotation Yrotation
    JOINT LeftLeg
    {
      OFFSET 43.7702 0 0
      CHANNELS 3 Zrotation Xrotation Yrotation
      JOINT LeftFoot
      {
        OFFSET 40.6238 0 0
        CHANNELS 3 Zrotation Xrotation Yrotation
        JOINT LeftToeBase
        {
          OFFSET 12.7242 0 0
          CHANNELS 3 Zrotation Xrotation Yrotation
          End Site
          {
            OFFSET 0 0 0
          }
        }
      }
    }
  }
  JOINT RightUpLeg
  {
    OFFSET -8.2249 1.95398 -2.59336
    CHANNELS 3 Zrotation Xrotation Yrotation
    JOINT RightLeg
    {
      OFFSET 43.5653 0 0
      CHANNELS 3 Zrotation Xrotation Yrotation
      JOINT RightFoot
      {
        OFFSET 40.6238 0 0
        CHANNELS 3 Zrotation Xrotation Yrotation
        JOINT RightToeBase
        {
          OFFSET 12.7242 0 0
          CHANNELS 3 Zrotation Xrotation Yrotation
          End Site
          {
            OFFSET 0 0 0
          }
        }
      }
    }
  }
  JOINT Spine
  {
    OFFSET 0.165834 0.87714 6.61349
    CHANNELS 3 Zrotation Xrotation Yrotation
    JOINT Spine1
    {
      OFFSET 7.38963 1.71661e-005 0
      CHANNELS 3 Zrotation Xrotation Yrotation
      JOINT Spine2
      {
        OFFSET 11.9445 1.14441e-005 0
        CHANNELS 3 Zrotation Xrotation Yrotation
        JOINT Spine3
        {
          OFFSET 14.7254 4.19617e-005 0
          CHANNELS 3 Zrotation Xrotation Yrotation
          JOINT Spine4
          {
            OFFSET 10.9679 0 0
            CHANNELS 3 Zrotation Xrotation Yrotation
            JOINT RightShoulder
            {
              OFFSET 2.46616 -1.6653 3.69651
              CHANNELS 3 Zrotation Xrotation Yrotation
              JOINT RightArm
              {
                OFFSET 13.0012 0 0
                CHANNELS 3 Zrotation Xrotation Yrotation
                JOINT RightForeArm
                {
                  OFFSET 28.7848 1.52588e-005 0
                  CHANNELS 3 Zrotation Xrotation Yrotation
                  JOINT RightHand
                  {
                    OFFSET 26.5688 1.52588e-005 0
                    CHANNELS 3 Zrotation Xrotation Yrotation
                    End Site
                    {
                      OFFSET 0 0 0
                    }
                  }
                }
              }
            }
            JOINT LeftShoulder
            {
              OFFSET 2.38034 -1.29275 -3.7523
              CHANNELS 3 Zrotation Xrotation Yrotation
              JOINT LeftArm
              {
                OFFSET 16.3182 6.10351e-005 0
                CHANNELS 3 Zrotation Xrotation Yrotation
                JOINT LeftForeArm
                {
                  OFFSET 27.0901 0 0
                  CHANNELS 3 Zrotation Xrotation Yrotation
                  JOINT LeftHand
                  {
                    OFFSET 24.5451 1.52588e-005 0
                    CHANNELS 3 Zrotation Xrotation Yrotation
                    End Site
                    {
                      OFFSET 0 0 0
                    }
                  }
                }
              }
            }
            JOINT Neck
            {
              OFFSET 5.0226 -0.0266342 0
              CHANNELS 3 Zrotation Xrotation Yrotation
              JOINT Head
              {
                OFFSET 6.69364 2.86102e-005 0
                CHANNELS 3 Zrotation Xrotation Yrotation
                End Site
                {
                  OFFSET 0 0 0
                }
              }
            }
          }
        }
      }
    }
  }
}
MOTION
Frames:	9
Frame Time:	0.0416667
-209.59 98.2787 -189.139 -101.554 42.7382 -82.5416 -174.747 1.93477 94.4175 -17.6836 5.66578 -0.407131 65.8952 3.45024 -0.34048 25.6652 -0.577758 1.19863 169.225 0.355026 87.8939 -19.6517 -4.02842 0.736935 71.7942 -5.78728 -1.5302 14.0117 -0.991815 3.51723 0.257167 8.20583 -89.9977 10.4624 0.513393 -0.0408654 -1.2084 0.511083 -0.0634303 -23.7444 0.501929 0.115327 -3.73172 0.50193 0.11532 90.0055 -30.2083 -106.669 41.8556 -9.01577 -1.41616 -0.543225 -27.2433 -20.6832 -23.6576 0.235215 -9.85445 -85.0941 -54.2229 86.6321 -20.2925 14.104 -11.0849 6.79771 19.2977 -15.4635 -1.34925 -0.125776 -8.22376 8.11275 -1.0748 -1.51065 -1.7522 -0.738536 -1.64514 
-209.603 98.2616 -189.021 -100.808 42.7207 -82.5191 -174.356 3.13929 95.0443 -18.6048 6.35735 -0.645668 65.6206 3.29293 0.300116 26.5023 0.164622 -0.0612806 169.727 0.78509 88.5985 -19.4134 -3.54886 0.724655 71.4536 -5.63309 -1.73237 14.0245 -1.04268 3.61177 0.224581 8.15023 -90.0212 10.5737 0.437603 -0.0815298 -1.09722 0.433606 -0.100711 -23.633 0.441882 0.0537589 -3.62031 0.441881 0.0537632 89.7619 -30.4724 -107.048 41.9062 -8.87995 -1.13735 -0.837049 -27.9635 -20.5798 -22.8385 0.35856 -10.9141 -85.2124 -53.6339 86.3886 -20.0715 14.0614 -11.2707 7.17358 18.9829 -16.2165 -1.4027 -0.122592 -8.15777 8.0932 -1.00791 -1.97713 -1.7297 -0.575171 -1.1205 
-209.853 98.2946 -188.843 -100.942 43.1656 -82.6443 -174.567 2.57079 94.5629 -18.0045 5.44352 -0.69456 66.0534 3.50483 -0.274678 25.3963 -0.405541 0.944133 169.538 0.897716 88.1373 -19.5588 -4.08556 0.587143 71.4789 -5.60602 -1.53839 14.1484 -1.07405 3.66656 0.236757 8.18762 -89.9917 10.4988 0.475407 -0.025819 -1.17211 0.473837 -0.0467283 -23.7079 0.461177 0.118258 -3.69529 0.4612 0.118255 89.7505 -30.6493 -107.002 41.5279 -8.89723 -1.14223 -0.247192 -27.6264 -20.0124 -23.2636 0.325819 -10.5273 -85.22 -53.2605 86.3309 -20.0082 13.6 -11.7163 7.93706 19.4881 -17.1106 -1.23651 -0.131606 -8.5493 8.51115 -0.84156 -1.8476 -2.00411 -0.429816 -1.18514 
-209.984 98.2997 -188.495 -100.664 43.7483 -82.6923 -174.678 3.15506 94.4047 -18.4756 5.15383 -0.792696 65.689 3.24825 0.469466 25.2301 0.216566 -0.028493 169.676 1.53547 88.2112 -19.7969 -4.6473 0.467247 71.1713 -5.61841 -1.76681 14.1992 -1.12484 3.76132 0.235654 8.18482 -90.0203 10.5045 0.46012 -0.0813356 -1.16635 0.456097 -0.101515 -23.7022 0.463277 0.060711 -3.68952 0.463283 0.0607082 90.2501 -31.4622 -105.733 40.6149 -9.41374 -1.83605 -0.0048252 -28.2524 -19.5212 -23.7477 0.290611 -10.312 -85.1953 -53.6411 86.4138 -19.4837 12.9318 -12.019 9.02134 20.9878 -17.8376 -2.54219 -0.0844729 -8.35507 8.57879 -0.538783 -1.20041 -2.06738 -0.268812 -1.78995 
-209.556 97.9684 -187.797 -100.427 44.7969 -82.8854 -174.677 5.18062 94.2579 -21.0124 4.7948 -1.22965 66.0757 3.03609 0.817065 24.0816 0.0441984 0.334556 169.722 4.53177 88.031 -23.6924 -5.90786 0.538656 71.3154 -6.06186 -2.40581 13.8268 -1.10374 3.73592 0.322866 8.22599 -90.0783 10.4224 0.607313 -0.209163 -1.2484 0.597531 -0.235693 -23.7847 0.642105 -0.0169583 -3.77202 0.642101 -0.0169624 90.8813 -30.1934 -104.947 41.0075 -9.43938 -1.88642 -0.317124 -28.7062 -19.314 -23.7875 0.312157 -10.5149 -85.3147 -53.8612 86.2692 -19.7826 12.8123 -11.9046 8.98667 19.6062 -18.3226 -0.922818 -0.135364 -7.95261 9.74339 -0.402304 -0.128139 -2.64311 -0.349126 -2.3984 
-208.185 97.1901 -186.35 -99.075 45.5419 -84.8936 -175.353 9.264 93.1113 -24.6863 3.83231 -1.60119 66.2657 2.78863 0.924649 23.5321 0.210292 0.132097 169.487 11.6763 87.096 -31.8294 -8.37764 0.597968 71.0962 -6.04262 -2.57875 13.7718 -0.987022 3.51657 0.38921 8.37236 -89.9839 10.1294 0.783037 -0.0338715 -1.54126 0.780772 -0.0682963 -24.0782 0.757004 0.203048 -4.06558 0.756996 0.203046 90.6166 -29.9774 -105.543 40.1654 -8.58351 -2.11403 -1.75805 -28.7754 -21.2824 -22.8188 0.360447 -11.0993 -85.254 -53.313 86.2882 -19.9547 12.6507 -10.0894 9.9458 15.3406 -22.8167 0.7945 -0.200632 -8.35119 13.077 0.0385776 1.22139 -3.11103 -0.246725 -2.42872 
-205.557 95.9915 -183.989 -94.3653 43.5657 -90.3384 -176.308 17.4721 90.8322 -28.8223 5.56476 -2.10526 64.2873 1.9967 1.96841 22.9379 -0.107522 0.659074 169.688 21.6518 85.4475 -38.9711 -10.3195 0.485725 68.8002 -4.76229 -2.22814 14.4203 -0.808675 3.14925 0.362485 8.51004 -89.851 9.85289 0.790332 0.231851 -1.81783 0.79974 0.196844 -24.3543 0.684107 0.458669 -4.34168 0.684083 0.458665 89.9466 -29.1329 -107.204 39.0537 -7.26638 -2.27465 -3.353 -30.8266 -22.0591 -22.2432 0.385439 -11.8694 -85.3883 -52.9406 86.0455 -19.9596 11.3149 -8.72439 11.8479 13.6233 -27.3364 1.41402 -0.248863 -9.17696 19.3545 0.0500263 4.05198 -2.9535 -1.1829 -3.5311 
-201.711 94.1468 -181.34 -89.0903 37.2673 -96.4814 -175.011 28.7148 88.3205 -32.8987 15.24 -3.97532 59.3072 -0.0162054 0.997259 22.6109 -0.0693157 0.609259 167.664 31.5351 83.2208 -44.0552 -8.34021 2.1001 70.0606 -5.04865 -3.81104 12.9384 -1.53143 4.54482 0.0577968 8.65459 -89.8785 9.56442 0.170074 0.227472 -2.10655 0.179922 0.219757 -24.6414 0.093852 0.268073 -4.62876 0.093842 0.268065 90.168 -28.4662 -107.02 35.8626 -9.16606 -1.68898 -2.44672 -28.5789 -23.536 -24.0205 0.532078 -11.6876 -86.1105 -52.04 84.8604 -22.4402 9.29599 -6.46322 15.9317 14.9549 -32.5479 1.99669 -0.293133 -9.66293 27.8748 -0.0693603 6.57938 -3.73104 -2.48278 -3.87475 
-198.483 92.109 -178.856 -87.9718 33.111 -98.7926 -170.977 34.3934 85.6217 -43.0107 18.82 -5.98875 65.7096 2.66736 -1.03686 25.6325 -1.14912 2.13498 165.641 37.5006 81.0616 -47.9127 -8.01151 3.51864 73.0548 -6.27259 -4.55086 10.2993 -1.98957 5.42709 -0.137298 8.81361 -89.9773 9.24691 -0.263593 0.0638254 -2.42401 -0.26052 0.0753601 -24.9594 -0.270571 -0.0183407 -4.94677 -0.270583 -0.018342 90.0704 -28.3618 -107.26 35.3114 -5.37769 0.759751 0.453863 -21.9641 -20.3354 -24.7243 0.715713 -11.2985 -86.5859 -50.6911 83.9582 -24.5606 9.39636 -5.22572 19.215 18.5077 -34.6257 3.55497 -0.272388 -8.04392 29.8656 -0.862823 4.72329 -3.54417 -2.66556 -2.3214 
